<svg width="32" height="42" viewBox="0 0 32 42" fill="none" xmlns="http://www.w3.org/2000/svg">
<path d="M8 0H12.706V1.97135H9.96783V3.9427H12.706V5.91405H8V0ZM13.6461 0H18.3539V1.71533H15.6157V2.0573H18.3539V6H13.6461V4.20055H16.3843V3.85675H13.6461V0ZM19.2958 0H24V1.71533H21.2618V2.0573H24V6H19.2958V4.20055H22.034V3.85675H19.2958V0Z" fill="#0000F5"/>
<path fill-rule="evenodd" clip-rule="evenodd" d="M15.984 42L3.63911 38.6005L0 8H32L28.3627 38.597L15.984 42ZM7.19467 21.8518L7.53422 25.6039H20.6489L20.2098 30.4704L15.9893 31.6023H15.9858L11.7724 30.4739L11.5022 27.4817H7.70311L8.23289 33.3744L15.984 35.5079L23.7476 33.3744L24.6933 22.8586L24.7858 21.8518L25.4684 14.2541H6.51378L6.85867 18.008H21.3227L20.9778 21.8518H7.19467V21.8518Z" fill="#0000F5"/>
</svg>
