<svg width="24" height="18" viewBox="0 0 24 18" fill="none" xmlns="http://www.w3.org/2000/svg">
<path d="M20.3175 1.49315C18.7613 0.790432 17.1192 0.288888 15.4321 0.00102518C15.4168 -0.00150766 15.4011 0.000679868 15.3871 0.00728706C15.3732 0.0138943 15.3616 0.0245966 15.3541 0.0379225C15.1426 0.406896 14.9086 0.889512 14.7451 1.26734C12.9265 0.995789 11.0767 0.995789 9.25816 1.26734C9.07578 0.846446 8.86945 0.43599 8.64016 0.0379225C8.63247 0.0247425 8.6209 0.0141635 8.60698 0.00757754C8.59305 0.000991578 8.57743 -0.00129268 8.56216 0.00102518C6.87468 0.287348 5.2322 0.789152 3.67671 1.49315C3.6634 1.49815 3.65227 1.50754 3.64522 1.51972C0.534248 6.09351 -0.319243 10.5551 0.0992523 14.9607C0.100752 14.9813 0.114252 15.002 0.130752 15.0153C1.94232 16.3356 3.9686 17.3437 6.12319 17.9966C6.1384 18.0013 6.15475 18.0011 6.16985 17.9961C6.18496 17.991 6.19804 17.9814 6.20719 17.9685C6.66918 17.3487 7.08018 16.6948 7.43418 16.0071C7.44155 15.9929 7.44408 15.9768 7.44138 15.9611C7.43867 15.9454 7.43089 15.931 7.41918 15.92C7.41142 15.9128 7.40223 15.9073 7.39218 15.9038C6.74592 15.6594 6.12003 15.3658 5.5202 15.0256C5.50344 15.0163 5.49098 15.0009 5.4854 14.9828C5.47981 14.9647 5.48153 14.9451 5.4902 14.9282C5.4953 14.9172 5.50302 14.9076 5.5127 14.9002C5.63869 14.8072 5.76469 14.7098 5.88469 14.6124C5.89529 14.604 5.90801 14.5986 5.92149 14.5968C5.93496 14.5949 5.94869 14.5968 5.96119 14.602C9.88965 16.3672 14.1421 16.3672 18.0226 14.602C18.0355 14.5965 18.0498 14.5946 18.0638 14.5964C18.0778 14.5982 18.091 14.6037 18.1021 14.6124C18.2221 14.7098 18.3481 14.8072 18.4741 14.9002C18.4843 14.9075 18.4925 14.9172 18.4979 14.9284C18.5034 14.9397 18.5059 14.952 18.5053 14.9645C18.5047 14.9769 18.501 14.989 18.4945 14.9997C18.488 15.0103 18.4789 15.0192 18.4681 15.0256C17.8696 15.3689 17.2429 15.6621 16.5946 15.9023C16.5842 15.906 16.5748 15.9118 16.5671 15.9195C16.5593 15.9272 16.5533 15.9364 16.5496 15.9466C16.5461 15.9564 16.5447 15.9669 16.5455 15.9773C16.5463 15.9877 16.5492 15.9978 16.5541 16.0071C16.9141 16.6934 17.3266 17.3487 17.7796 17.9685C17.7887 17.9814 17.8018 17.991 17.8169 17.9961C17.832 18.0011 17.8484 18.0013 17.8636 17.9966C20.0218 17.3458 22.0513 16.3375 23.865 15.0153C23.8741 15.0091 23.8816 15.001 23.8871 14.9915C23.8925 14.9821 23.8958 14.9715 23.8965 14.9607C24.3975 9.86736 23.058 5.44264 20.3475 1.52119C20.3448 1.51472 20.3407 1.50888 20.3356 1.50405C20.3304 1.49922 20.3243 1.4955 20.3175 1.49315ZM8.02067 12.2775C6.83718 12.2775 5.86369 11.209 5.86369 9.89836C5.86369 8.58629 6.81918 7.51774 8.02067 7.51774C9.23116 7.51774 10.1956 8.59515 10.1776 9.89836C10.1776 11.209 9.22216 12.2775 8.02067 12.2775ZM15.9946 12.2775C14.8126 12.2775 13.8376 11.209 13.8376 9.89836C13.8376 8.58629 14.7931 7.51774 15.9946 7.51774C17.2051 7.51774 18.1711 8.59515 18.1516 9.89836C18.1516 11.209 17.2051 12.2775 15.9946 12.2775Z" fill="#0000F5"/>
</svg>
