<svg width="32" height="47" viewBox="0 0 32 47" fill="none" xmlns="http://www.w3.org/2000/svg">
<path d="M28.0936 16.1509C30.1899 14.7483 31.5849 12.5019 31.9212 9.98711C32.2575 7.4723 31.5024 4.93352 29.8492 3.02078C28.1962 1.10804 25.8055 0.0073097 23.2898 0H8.73394C6.21825 0.00731247 3.82753 1.10804 2.17459 3.02078C0.521298 4.93352 -0.233718 7.47239 0.102561 9.98711C0.438814 12.5019 1.83389 14.7482 3.93014 16.1509C1.49072 17.783 0.0242581 20.5391 0.0242581 23.492C0.0242581 26.4448 1.49081 29.2009 3.93014 30.833C1.36133 32.5397 -0.128371 35.4831 0.00870398 38.5826C0.145761 41.6821 1.88877 44.4803 4.59819 45.9498C7.30716 47.4189 10.5831 47.3423 13.2216 45.7478C15.8605 44.1537 17.4734 41.2771 17.4676 38.1745V30.0991C19.1011 31.4843 21.1567 32.2619 23.2902 32.3015C25.8059 32.2946 28.1966 31.1935 29.8495 29.2807C31.5028 27.368 32.2578 24.8291 31.9216 22.3144C31.5853 19.8 30.1902 17.5537 28.094 16.151L28.0936 16.1509ZM17.467 2.93636H23.2897C25.37 2.93636 27.2922 4.0559 28.3324 5.87281C29.3723 7.69016 29.3723 9.92881 28.3324 11.7458C27.2922 13.5632 25.37 14.6823 23.2897 14.6823H17.467V2.93636ZM2.91113 8.80935C2.91113 7.25176 3.5246 5.758 4.61657 4.65655C5.70854 3.5551 7.18953 2.93636 8.73376 2.93636H14.5564V14.6827H8.73376C7.18953 14.6827 5.70857 14.0639 4.61657 12.9625C3.52466 11.8612 2.91113 10.3673 2.91113 8.80971V8.80935ZM2.91113 23.4921C2.91113 21.9345 3.5246 20.4407 4.61657 19.3392C5.70848 18.2379 7.18953 17.6191 8.73376 17.6191H14.5564V29.3654H8.73376C7.18953 29.3654 5.70857 28.7466 4.61657 27.6452C3.52466 26.5439 2.91113 25.05 2.91113 23.4924V23.4921ZM14.5567 38.1748C14.5567 39.7323 13.9433 41.2261 12.8513 42.3276C11.7593 43.429 10.2783 44.0477 8.73411 44.0477C7.18988 44.0477 5.70892 43.429 4.61692 42.3276C3.52492 41.2261 2.91149 39.7323 2.91149 38.1748C2.91149 36.6172 3.52496 35.1234 4.61692 34.0219C5.70884 32.9206 7.18988 32.3018 8.73411 32.3018H14.5567V38.1748ZM23.2906 29.3653H23.2903C21.7461 29.3653 20.2651 28.7465 19.1731 27.6451C18.0812 26.5438 17.4677 25.0499 17.4677 23.4923C17.4677 21.9347 18.0811 20.441 19.1731 19.3395C20.265 18.2382 21.7461 17.6193 23.2903 17.6193C24.8345 17.6193 26.3155 18.2381 27.4075 19.3395C28.4994 20.4409 29.1129 21.9347 29.1129 23.4923C29.1129 25.0499 28.4994 26.5437 27.4075 27.6451C26.3156 28.7465 24.8345 29.3653 23.2903 29.3653H23.2906Z" fill="#0000F5"/>
</svg>
