<svg width="32" height="32" viewBox="0 0 32 32" fill="none" xmlns="http://www.w3.org/2000/svg">
<path d="M31.3951 14.5744L17.4225 0.603746C17.2312 0.412341 17.004 0.260505 16.754 0.156912C16.504 0.0533195 16.236 0 15.9654 0C15.6948 0 15.4268 0.0533195 15.1768 0.156912C14.9268 0.260505 14.6997 0.412341 14.5083 0.603746L11.6082 3.50387L15.2884 7.18403C15.7224 7.03584 16.1894 7.01266 16.6359 7.11713C17.0825 7.22159 17.4907 7.4495 17.814 7.77484C18.1372 8.10018 18.3625 8.50985 18.4641 8.95708C18.5657 9.40432 18.5395 9.8711 18.3885 10.3042L21.9347 13.8523C22.4593 13.6676 23.0312 13.667 23.5562 13.8507C24.0812 14.0344 24.5281 14.3914 24.8231 14.863C25.1181 15.3345 25.2438 15.8924 25.1794 16.4449C25.115 16.9974 24.8643 17.5115 24.4688 17.9025C24.0683 18.3054 23.5404 18.5568 22.9752 18.6137C22.41 18.6706 21.8426 18.5295 21.3699 18.2145C20.8971 17.8995 20.5484 17.4302 20.3833 16.8866C20.2182 16.3431 20.247 15.7591 20.4646 15.2344L17.1585 11.9262V20.6326C17.661 20.8814 18.0631 21.2948 18.2977 21.8041C18.5324 22.3134 18.5854 22.8877 18.4479 23.4313C18.3105 23.975 17.9908 24.4551 17.5423 24.7916C17.0938 25.1281 16.5435 25.3008 15.9831 25.2808C15.4228 25.2608 14.8862 25.0493 14.4628 24.6816C14.0394 24.3139 13.7549 23.8123 13.6565 23.2602C13.5582 22.7082 13.6521 22.1391 13.9224 21.6479C14.1928 21.1566 14.6234 20.7729 15.1424 20.5606V11.7742C14.8429 11.6515 14.5708 11.4708 14.3415 11.2424C14.1123 11.014 13.9305 10.7425 13.8066 10.4435C13.6828 10.1446 13.6194 9.82405 13.62 9.50045C13.6207 9.17685 13.6853 8.85658 13.8103 8.55809L10.1842 4.92993L0.603746 14.5104C0.412341 14.7017 0.260505 14.9288 0.156912 15.1788C0.0533195 15.4288 0 15.6968 0 15.9674C0 16.238 0.0533195 16.506 0.156912 16.756C0.260505 17.006 0.412341 17.2332 0.603746 17.4245L14.5764 31.3971C14.7677 31.5885 14.9948 31.7403 15.2448 31.8439C15.4948 31.9475 15.7628 32.0008 16.0334 32.0008C16.304 32.0008 16.572 31.9475 16.822 31.8439C17.072 31.7403 17.2992 31.5885 17.4905 31.3971L31.3971 17.4905C31.7832 17.1038 32 16.5798 32 16.0334C32 15.487 31.7832 14.963 31.3971 14.5764" fill="#0000F5"/>
</svg>
