<svg width="32" height="43" viewBox="0 0 32 43" fill="none" xmlns="http://www.w3.org/2000/svg">
<path d="M3.69781 -0.00012207H5.62137V1.90032H7.38137V-0.00012207H9.30493V5.75277H7.38137V3.82743H5.62137V5.75277H3.69959V-0.00012207H3.69781ZM11.8329 1.90743H10.1405V-0.00012207H15.4507V1.90743H13.7565V5.75277H11.8329V1.90743V1.90743ZM16.2934 -0.00012207H18.2987L19.5325 2.02121L20.7645 -0.00012207H22.7698V5.75277H20.8551V2.90121L19.5325 4.94743H19.4987L18.1743 2.90299V5.75277H16.2934V-0.00012207V-0.00012207ZM23.7263 -0.00012207H25.6516V3.85232H28.3538V5.75454H23.7263V-0.00012207V-0.00012207Z" fill="#0000F5"/>
<path fill-rule="evenodd" clip-rule="evenodd" d="M3.63733 39.2391L0 8.38574H32L28.3609 39.2355L15.9822 42.6666L3.63733 39.2391ZM10.992 22.3502L10.6471 18.4746H25.1271L25.4649 14.6915H6.51378L7.53422 26.1351H20.6489L20.2098 31.0417L15.9893 32.1831H15.9858L11.7724 31.0453L11.5022 28.0284H7.70133L8.23111 33.9697L15.9822 36.1209L23.7458 33.9697L24.6916 23.3671L24.784 22.352H10.992V22.3502Z" fill="#0000F5"/>
</svg>
