<svg width="24" height="19" viewBox="0 0 24 19" fill="none" xmlns="http://www.w3.org/2000/svg">
<path d="M21.6 19H2.4C1.76348 19 1.15303 18.7498 0.702944 18.3044C0.252856 17.859 0 17.2549 0 16.625V2.27169C0.0269192 1.65988 0.291611 1.082 0.738814 0.658707C1.18602 0.235413 1.78116 -0.000578596 2.4 1.06533e-06H21.6C22.2365 1.06533e-06 22.847 0.250223 23.2971 0.695622C23.7471 1.14102 24 1.74511 24 2.375V16.625C24 17.2549 23.7471 17.859 23.2971 18.3044C22.847 18.7498 22.2365 19 21.6 19ZM2.4 4.59325V16.625H21.6V4.59325L12 10.925L2.4 4.59325ZM3.36 2.375L12 8.075L20.64 2.375H3.36Z" fill="#0000F5"/>
</svg>
