<svg width="24" height="25" viewBox="0 0 24 25" fill="none" xmlns="http://www.w3.org/2000/svg">
<path d="M22.9531 3.80102L19.7581 0.609003C19.3681 0.219001 18.8461 0 18.2941 0C17.7421 0 17.2201 0.216001 16.8301 0.609003L13.3891 4.04402C12.9991 4.43402 12.7801 4.95902 12.7801 5.51102C12.7801 6.06603 12.9961 6.58503 13.3891 6.97803L16.0771 9.66904C15.4647 11.0958 14.5849 12.3921 13.4851 13.4881C12.3841 14.5951 11.097 15.4681 9.66904 16.0861L6.98103 13.3951C6.59103 13.0051 6.06903 12.7861 5.51702 12.7861C5.24475 12.785 4.97502 12.8384 4.72363 12.943C4.47224 13.0475 4.24425 13.2012 4.05302 13.3951L0.609003 16.8301C0.219001 17.2201 0 17.7451 0 18.2971C0 18.8521 0.216001 19.3711 0.609003 19.7641L3.80102 22.9561C4.46702 23.6221 5.38502 24.0031 6.32703 24.0031C6.52203 24.0031 6.71103 23.9881 6.90303 23.9551C10.875 23.3011 14.8171 21.1861 18.0001 18.0061C21.1801 14.8201 23.2921 10.878 23.9521 6.90303C24.1411 5.77503 23.7631 4.61402 22.9531 3.80102V3.80102ZM21.8251 6.54603C21.2401 10.083 19.3381 13.6111 16.4731 16.4761C13.6081 19.3411 10.083 21.2431 6.54603 21.8281C6.10203 21.9031 5.64602 21.7531 5.32202 21.4321L2.18701 18.2971L5.51102 14.9701L9.10504 18.5701L9.13204 18.5971L9.78004 18.3571C11.7448 17.6347 13.5291 16.4937 15.009 15.0132C16.489 13.5327 17.6294 11.7481 18.3511 9.78304L18.5911 9.13504L14.9671 5.51402L18.2911 2.18701L21.4261 5.32202C21.7501 5.64602 21.9001 6.10203 21.8251 6.54603Z" fill="#0000F5"/>
</svg>
