<svg width="32" height="32" viewBox="0 0 32 32" fill="none" xmlns="http://www.w3.org/2000/svg">
<path d="M28.9092 32H3.09081C1.38645 32 0 30.6135 0 28.9092V3.09081C0 1.38645 1.38645 0 3.09081 0H28.9092C30.6136 0 32 1.38645 32 3.09081V28.9092C32.0003 30.6135 30.6136 32 28.9092 32ZM3.09147 1.8185C2.38966 1.8185 1.81863 2.38952 1.81863 3.09134V28.9097C1.81863 29.6113 2.38965 30.1825 3.09147 30.1825H28.9098C29.6117 30.1825 30.1827 29.6115 30.1827 28.9097L30.1824 3.09134C30.1824 2.38979 29.6114 1.8185 28.9096 1.8185H3.09147Z" fill="#0000F5"/>
<path d="M9.12996 9.26375C9.88753 9.13732 10.8799 9.02905 12.1425 9.02905C13.6938 9.02905 14.8302 9.38968 15.5517 10.0395C16.201 10.6167 16.6161 11.5005 16.6161 12.5828C16.6161 13.6834 16.2913 14.549 15.6781 15.1805C14.8304 16.0642 13.4956 16.5155 11.962 16.5155C11.4929 16.5155 11.06 16.4973 10.6992 16.4072V21.2776H9.12976L9.12996 9.26375ZM10.6994 15.1262C11.0421 15.2161 11.4749 15.2521 11.9981 15.2521C13.892 15.2521 15.0466 14.3144 15.0466 12.6725C15.0466 11.0488 13.892 10.2735 12.1785 10.2735C11.4931 10.2735 10.97 10.3278 10.6994 10.3999V15.1262Z" fill="#0000F5"/>
<path d="M18.0593 19.672C18.5464 19.9607 19.3762 20.2852 20.1699 20.2852C21.3063 20.2852 21.8476 19.7262 21.8476 18.9866C21.8476 18.2292 21.3966 17.832 20.242 17.3991C18.6546 16.8217 17.9152 15.974 17.9152 14.928C17.9152 13.521 19.0698 12.3665 20.9274 12.3665C21.8112 12.3665 22.587 12.6009 23.0559 12.9073L22.6771 14.0618C22.3344 13.8456 21.7032 13.5387 20.8913 13.5387C19.9533 13.5387 19.4483 14.08 19.4483 14.7293C19.4483 15.4509 19.9533 15.7754 21.0897 16.2264C22.587 16.7856 23.3807 17.5433 23.3807 18.8422C23.3807 20.3932 22.1722 21.4756 20.1338 21.4756C19.1778 21.4756 18.2938 21.223 17.6805 20.8623L18.0593 19.672Z" fill="#0000F5"/>
</svg>
