<svg width="18" height="18" viewBox="0 0 18 18" fill="none" xmlns="http://www.w3.org/2000/svg">
<path d="M8.95484 1.1925C7.26594 1.23047 6.19719 1.91391 5.73734 2.97C5.3 3.97547 5.39141 5.2425 5.70359 6.55875C5.53625 6.75563 5.39844 7.03266 5.43359 7.4475V7.47C5.49406 7.90875 5.62625 8.21813 5.79359 8.4375C5.87375 8.54157 5.98766 8.54719 6.08609 8.60625C6.17328 9.09704 6.36875 9.56532 6.59234 9.93375C6.60359 9.98719 6.62609 10.0364 6.65984 10.08C6.65984 10.08 6.69641 10.1264 6.70484 10.1363C6.81734 10.305 6.87359 10.5398 6.87359 10.8C6.87359 11.077 6.86937 11.3344 6.83984 11.6213C6.73156 11.8941 6.46156 12.112 6.02984 12.33C5.57844 12.5578 4.98781 12.7673 4.38734 13.0275C3.78687 13.2877 3.17797 13.5998 2.68859 14.0963C2.19922 14.5927 1.84906 15.2803 1.79984 16.1775L1.77734 16.56H16.2223L16.1998 16.1775C16.1506 15.2803 15.8089 14.5941 15.3223 14.0963C14.8358 13.5984 14.2241 13.2877 13.6236 13.0275C13.0231 12.7673 12.4283 12.5592 11.9698 12.33C11.5255 12.1078 11.247 11.8814 11.1261 11.5988C11.098 11.2584 11.0923 10.9898 11.0923 10.6875C11.0923 10.4948 11.1584 10.3205 11.2723 10.1475C11.2752 10.1433 11.2808 10.1405 11.2836 10.1363C11.285 10.1334 11.3061 10.1138 11.3061 10.1138C11.3511 10.0673 11.382 10.0083 11.3961 9.945C11.6141 9.57094 11.7955 9.09563 11.8798 8.6175C11.9923 8.55844 12.1189 8.55141 12.2061 8.4375C12.3791 8.2111 12.4803 7.88907 12.5211 7.4475C12.5534 7.06641 12.4437 6.78938 12.2736 6.58125C12.4606 6.00469 12.6828 5.08219 12.6111 4.14C12.5717 3.6225 12.4353 3.10641 12.1273 2.6775C11.8489 2.28938 11.3989 2.0236 10.8336 1.90125C10.4525 1.39219 9.76062 1.1925 8.96609 1.1925H8.95484ZM8.96609 1.9125C8.97031 1.9125 8.97312 1.9125 8.97734 1.9125C9.69594 1.91532 10.1558 2.11782 10.3048 2.37375L10.3948 2.53125L10.5748 2.55375C11.0698 2.62266 11.3412 2.81391 11.5423 3.09375C11.7434 3.3736 11.8587 3.76454 11.8911 4.19625C11.9572 5.0611 11.7069 6.075 11.5423 6.53625L11.4298 6.84L11.7111 6.98625C11.7083 6.9961 11.8264 7.11563 11.8123 7.38C11.8123 7.38563 11.8123 7.38563 11.8123 7.39125C11.7786 7.73016 11.6914 7.92141 11.6323 7.99875C11.5719 8.0775 11.5409 8.06625 11.5536 8.06625H11.2386L11.1936 8.38125C11.1317 8.84813 10.8941 9.43594 10.6873 9.73125H10.6761C10.655 9.76219 10.6395 9.79875 10.6198 9.8325C10.5256 9.94219 10.3836 10.087 10.1811 10.26C9.845 10.5469 9.39922 10.8 8.99984 10.8C8.60328 10.8 8.15328 10.5342 7.80734 10.2375C7.50781 9.98016 7.32922 9.75938 7.27859 9.6975C7.27719 9.69469 7.28 9.68907 7.27859 9.68625C7.06625 9.37969 6.82297 8.8425 6.76109 8.38125L6.72734 8.06625H6.43484C6.42219 8.06063 6.38844 8.04235 6.35609 7.99875C6.29281 7.91579 6.20281 7.72172 6.15359 7.39125C6.15359 7.38422 6.15359 7.38704 6.15359 7.38C6.15219 7.37438 6.155 7.37438 6.15359 7.36875C6.14797 7.09594 6.31672 6.94407 6.28859 6.96375L6.49109 6.8175L6.43484 6.57C6.10297 5.25797 6.05094 4.06969 6.40109 3.2625C6.75125 2.45813 7.46 1.94907 8.96609 1.9125ZM7.59359 10.9913C7.97328 11.2711 8.44859 11.52 8.99984 11.52C9.53984 11.52 10.0025 11.2838 10.3723 11.0138C10.3737 11.2331 10.3808 11.4581 10.4061 11.7338V11.7788L10.4286 11.8238C10.4919 11.9897 10.5819 12.1303 10.6873 12.2625C10.6831 12.2766 10.6789 12.292 10.6761 12.3075C10.6761 12.3075 10.5903 12.5438 10.3386 12.8025C10.0869 13.0613 9.69594 13.32 8.99984 13.32C8.30656 13.32 7.90156 13.05 7.63859 12.78C7.37562 12.51 7.28984 12.2625 7.28984 12.2625C7.39391 12.1275 7.47969 11.9827 7.53734 11.8125L7.55984 11.745C7.59078 11.4722 7.59359 11.2261 7.59359 10.9913ZM11.2498 12.7575C11.3764 12.8391 11.5072 12.915 11.6436 12.9825C12.1695 13.2441 12.7658 13.4466 13.3311 13.6913C13.8964 13.9359 14.4237 14.213 14.8048 14.6025C15.1086 14.9133 15.2914 15.3267 15.3898 15.84H2.60984C2.70828 15.3267 2.88969 14.9133 3.19484 14.6025C3.57734 14.213 4.11453 13.9359 4.67984 13.6913C5.24516 13.4466 5.83578 13.2455 6.35609 12.9825C6.48547 12.9164 6.61766 12.8475 6.73859 12.7688C6.81875 12.9136 6.9425 13.102 7.12109 13.2863C7.48812 13.6645 8.10969 14.04 8.99984 14.04C9.88719 14.04 10.4961 13.6688 10.8561 13.2975C11.053 13.095 11.1725 12.9066 11.2498 12.7575Z" fill="white"/>
<mask id="mask0_701_275" style="mask-type:alpha" maskUnits="userSpaceOnUse" x="1" y="1" width="16" height="16">
<path d="M8.95484 1.1925C7.26594 1.23047 6.19719 1.91391 5.73734 2.97C5.3 3.97547 5.39141 5.2425 5.70359 6.55875C5.53625 6.75563 5.39844 7.03266 5.43359 7.4475V7.47C5.49406 7.90875 5.62625 8.21813 5.79359 8.4375C5.87375 8.54157 5.98766 8.54719 6.08609 8.60625C6.17328 9.09704 6.36875 9.56532 6.59234 9.93375C6.60359 9.98719 6.62609 10.0364 6.65984 10.08C6.65984 10.08 6.69641 10.1264 6.70484 10.1363C6.81734 10.305 6.87359 10.5398 6.87359 10.8C6.87359 11.077 6.86937 11.3344 6.83984 11.6213C6.73156 11.8941 6.46156 12.112 6.02984 12.33C5.57844 12.5578 4.98781 12.7673 4.38734 13.0275C3.78687 13.2877 3.17797 13.5998 2.68859 14.0963C2.19922 14.5927 1.84906 15.2803 1.79984 16.1775L1.77734 16.56H16.2223L16.1998 16.1775C16.1506 15.2803 15.8089 14.5941 15.3223 14.0963C14.8358 13.5984 14.2241 13.2877 13.6236 13.0275C13.0231 12.7673 12.4283 12.5592 11.9698 12.33C11.5255 12.1078 11.247 11.8814 11.1261 11.5988C11.098 11.2584 11.0923 10.9898 11.0923 10.6875C11.0923 10.4948 11.1584 10.3205 11.2723 10.1475C11.2752 10.1433 11.2808 10.1405 11.2836 10.1363C11.285 10.1334 11.3061 10.1138 11.3061 10.1138C11.3511 10.0673 11.382 10.0083 11.3961 9.945C11.6141 9.57094 11.7955 9.09563 11.8798 8.6175C11.9923 8.55844 12.1189 8.55141 12.2061 8.4375C12.3791 8.2111 12.4803 7.88907 12.5211 7.4475C12.5534 7.06641 12.4437 6.78938 12.2736 6.58125C12.4606 6.00469 12.6828 5.08219 12.6111 4.14C12.5717 3.6225 12.4353 3.10641 12.1273 2.6775C11.8489 2.28938 11.3989 2.0236 10.8336 1.90125C10.4525 1.39219 9.76062 1.1925 8.96609 1.1925H8.95484ZM8.96609 1.9125C8.97031 1.9125 8.97312 1.9125 8.97734 1.9125C9.69594 1.91532 10.1558 2.11782 10.3048 2.37375L10.3948 2.53125L10.5748 2.55375C11.0698 2.62266 11.3412 2.81391 11.5423 3.09375C11.7434 3.3736 11.8587 3.76454 11.8911 4.19625C11.9572 5.0611 11.7069 6.075 11.5423 6.53625L11.4298 6.84L11.7111 6.98625C11.7083 6.9961 11.8264 7.11563 11.8123 7.38C11.8123 7.38563 11.8123 7.38563 11.8123 7.39125C11.7786 7.73016 11.6914 7.92141 11.6323 7.99875C11.5719 8.0775 11.5409 8.06625 11.5536 8.06625H11.2386L11.1936 8.38125C11.1317 8.84813 10.8941 9.43594 10.6873 9.73125H10.6761C10.655 9.76219 10.6395 9.79875 10.6198 9.8325C10.5256 9.94219 10.3836 10.087 10.1811 10.26C9.845 10.5469 9.39922 10.8 8.99984 10.8C8.60328 10.8 8.15328 10.5342 7.80734 10.2375C7.50781 9.98016 7.32922 9.75938 7.27859 9.6975C7.27719 9.69469 7.28 9.68907 7.27859 9.68625C7.06625 9.37969 6.82297 8.8425 6.76109 8.38125L6.72734 8.06625H6.43484C6.42219 8.06063 6.38844 8.04235 6.35609 7.99875C6.29281 7.91579 6.20281 7.72172 6.15359 7.39125C6.15359 7.38422 6.15359 7.38704 6.15359 7.38C6.15219 7.37438 6.155 7.37438 6.15359 7.36875C6.14797 7.09594 6.31672 6.94407 6.28859 6.96375L6.49109 6.8175L6.43484 6.57C6.10297 5.25797 6.05094 4.06969 6.40109 3.2625C6.75125 2.45813 7.46 1.94907 8.96609 1.9125ZM7.59359 10.9913C7.97328 11.2711 8.44859 11.52 8.99984 11.52C9.53984 11.52 10.0025 11.2838 10.3723 11.0138C10.3737 11.2331 10.3808 11.4581 10.4061 11.7338V11.7788L10.4286 11.8238C10.4919 11.9897 10.5819 12.1303 10.6873 12.2625C10.6831 12.2766 10.6789 12.292 10.6761 12.3075C10.6761 12.3075 10.5903 12.5438 10.3386 12.8025C10.0869 13.0613 9.69594 13.32 8.99984 13.32C8.30656 13.32 7.90156 13.05 7.63859 12.78C7.37562 12.51 7.28984 12.2625 7.28984 12.2625C7.39391 12.1275 7.47969 11.9827 7.53734 11.8125L7.55984 11.745C7.59078 11.4722 7.59359 11.2261 7.59359 10.9913ZM11.2498 12.7575C11.3764 12.8391 11.5072 12.915 11.6436 12.9825C12.1695 13.2441 12.7658 13.4466 13.3311 13.6913C13.8964 13.9359 14.4237 14.213 14.8048 14.6025C15.1086 14.9133 15.2914 15.3267 15.3898 15.84H2.60984C2.70828 15.3267 2.88969 14.9133 3.19484 14.6025C3.57734 14.213 4.11453 13.9359 4.67984 13.6913C5.24516 13.4466 5.83578 13.2455 6.35609 12.9825C6.48547 12.9164 6.61766 12.8475 6.73859 12.7688C6.81875 12.9136 6.9425 13.102 7.12109 13.2863C7.48812 13.6645 8.10969 14.04 8.99984 14.04C9.88719 14.04 10.4961 13.6688 10.8561 13.2975C11.053 13.095 11.1725 12.9066 11.2498 12.7575Z" fill="#DEDBDA"/>
</mask>
<g mask="url(#mask0_701_275)">
</g>
</svg>
