<svg width="13" height="16" viewBox="0 0 13 16" fill="none" xmlns="http://www.w3.org/2000/svg">
<path d="M9.02242 2.5H3.97761C2.33573 2.5 1 3.83573 1 5.47761V10.5225C1 12.1643 2.33573 13.5 3.97761 13.5H9.0225C10.6643 13.5 12 12.1643 12 10.5225V5.47761C12 3.83573 10.6643 2.5 9.02242 2.5V2.5ZM6.50001 11.0077C4.84152 11.0077 3.49228 9.65851 3.49228 8.00001C3.49228 6.34152 4.84152 4.99228 6.50001 4.99228C8.15851 4.99228 9.50775 6.34152 9.50775 8.00001C9.50775 9.65851 8.15851 11.0077 6.50001 11.0077V11.0077ZM9.57967 5.7016C9.08956 5.7016 8.69092 5.30296 8.69092 4.81285C8.69092 4.32274 9.08956 3.92401 9.57967 3.92401C10.0698 3.92401 10.4685 4.32274 10.4685 4.81285C10.4685 5.30296 10.0698 5.7016 9.57967 5.7016Z" fill="#A1A1A6"/>
<path d="M6.50007 5.63721C5.19725 5.63721 4.13721 6.69716 4.13721 8.00007C4.13721 9.3029 5.19725 10.3629 6.50007 10.3629C7.80299 10.3629 8.86294 9.3029 8.86294 8.00007C8.86294 6.69716 7.80299 5.63721 6.50007 5.63721V5.63721Z" fill="#A1A1A6"/>
</svg>
