<svg width="75" height="18" viewBox="0 0 75 18" fill="none" xmlns="http://www.w3.org/2000/svg">
<path d="M18.4297 0.0898438H14.3281L9.52344 12.0781H9.42969L4.625 0.0898438H0.523438V17H3.67578V5.58594H3.76953L8.36328 16.8359H10.5898L15.1836 5.58594H15.2773V17H18.4297V0.0898438ZM26.1641 14.6562C24.9219 14.6562 24.1133 14.0586 24.1133 13.1094C24.1133 12.1602 24.875 11.5977 26.3047 11.5039L29.0117 11.3164V12.2656C29.0117 13.6719 27.7461 14.6562 26.1641 14.6562ZM25.0508 17.1523C26.7031 17.1523 28.2969 16.3555 29 15.0078H29.0703V17H32.375V8.15234C32.375 5.57422 30.207 3.875 26.8906 3.875C23.668 3.875 21.4414 5.57422 21.3477 8.03516H24.4766C24.6406 7.09766 25.5078 6.44141 26.75 6.44141C28.1562 6.44141 29.0117 7.12109 29.0117 8.36328V9.21875L25.7891 9.41797C22.4961 9.61719 20.7031 10.9414 20.7031 13.2852C20.7031 15.5938 22.5664 17.1523 25.0508 17.1523ZM41.5039 10.0859L46.7188 4.09766H42.8047L38.4219 9.32422H38.3281V4.09766H34.918V17H38.3281V11.4219H38.4219L42.875 17H47.0117L41.5039 10.0859ZM54.207 17.2227C58.1211 17.2227 60.5703 14.7266 60.5703 10.543C60.5703 6.40625 58.0977 3.875 54.207 3.875C50.3281 3.875 47.8438 6.41797 47.8438 10.543C47.8438 14.7148 50.293 17.2227 54.207 17.2227ZM54.207 14.5859C52.4023 14.5859 51.3125 13.1094 51.3125 10.543C51.3125 8.01172 52.4023 6.5 54.207 6.5C56 6.5 57.0898 8 57.0898 10.543C57.0898 13.1094 56.0117 14.5859 54.207 14.5859ZM71.1055 17H74.5156V4.09766H71.1055V9.07812H66.0547V4.09766H62.6445V17H66.0547V11.6797H71.1055V17Z" fill="white"/>
</svg>
