<svg width="16" height="16" viewBox="0 0 16 16" fill="none" xmlns="http://www.w3.org/2000/svg">
<path fill-rule="evenodd" clip-rule="evenodd" d="M15 3.65001C14.4839 3.9041 13.9238 4.05686 13.35 4.10001C13.9597 3.75044 14.4084 3.17615 14.6 2.50001C14.0449 2.83537 13.4359 3.07219 12.8 3.20001C11.9966 2.3474 10.7549 2.06989 9.66492 2.49929C8.5749 2.92869 7.85614 3.97847 7.85005 5.15001C7.85005 5.40001 7.90005 5.60001 7.90005 5.80001C5.5908 5.70516 3.43715 4.61008 2.00005 2.80001C1.73978 3.25722 1.602 3.7739 1.60005 4.30001C1.59061 5.27063 2.08191 6.17765 2.90005 6.70001C2.44564 6.68439 2.00088 6.56464 1.60005 6.35001V6.40001C1.59834 7.76331 2.56237 8.93691 3.90005 9.20001C3.65393 9.25782 3.40272 9.29131 3.15005 9.30001C2.9653 9.30822 2.78029 9.2914 2.60005 9.25001C2.98664 10.4205 4.0677 11.2213 5.30005 11.25C4.28545 12.044 3.03831 12.4832 1.75005 12.5C1.5156 12.5083 1.28094 12.4915 1.05005 12.45C2.36453 13.2901 3.89005 13.7409 5.45005 13.75C10.75 13.75 13.6 9.35001 13.6 5.60001V5.25001C14.1321 4.77763 14.6025 4.24006 15 3.65001Z" fill="#A1A1A6"/>
</svg>
