<svg width="16" height="16" viewBox="0 0 16 16" fill="none" xmlns="http://www.w3.org/2000/svg">
<path fill-rule="evenodd" clip-rule="evenodd" d="M14.85 5.2001C14.774 4.69809 14.586 4.21961 14.3 3.8001C13.9189 3.44089 13.4229 3.22831 12.9 3.2001C10.95 3.1001 8 3.1001 8 3.1001C8 3.1001 5.05 3.1001 3.1 3.2501C2.57422 3.21257 2.05964 3.41472 1.7 3.8001C1.40665 4.21569 1.21798 4.69596 1.15 5.2001C1.05792 5.9467 1.00785 6.69788 1 7.4501V8.5001C1.00529 9.25241 1.05538 10.0037 1.15 10.7501C1.22602 11.2521 1.41399 11.7306 1.7 12.1501C2.13053 12.5253 2.67904 12.7377 3.25 12.7501C4.35 12.8501 8 12.9001 8 12.9001C8 12.9001 10.95 12.9001 12.9 12.7501C13.4229 12.7219 13.9189 12.5093 14.3 12.1501C14.5933 11.7345 14.782 11.2542 14.85 10.7501C14.9421 10.0035 14.9922 9.25231 15 8.5001V7.4501C14.9922 6.69788 14.9421 5.9467 14.85 5.2001ZM6.55001 9.8001V5.8501L10.35 7.8001L6.55001 9.8001Z" fill="#A1A1A6"/>
<mask id="mask0_539_66" style="mask-type:alpha" maskUnits="userSpaceOnUse" x="1" y="3" width="14" height="10">
<path fill-rule="evenodd" clip-rule="evenodd" d="M14.85 5.2001C14.774 4.69809 14.586 4.21961 14.3 3.8001C13.9189 3.44089 13.4229 3.22831 12.9 3.2001C10.95 3.1001 8 3.1001 8 3.1001C8 3.1001 5.05 3.1001 3.1 3.2501C2.57422 3.21257 2.05964 3.41472 1.7 3.8001C1.40665 4.21569 1.21798 4.69596 1.15 5.2001C1.05792 5.9467 1.00785 6.69788 1 7.4501V8.5001C1.00529 9.25241 1.05538 10.0037 1.15 10.7501C1.22602 11.2521 1.41399 11.7306 1.7 12.1501C2.13053 12.5253 2.67904 12.7377 3.25 12.7501C4.35 12.8501 8 12.9001 8 12.9001C8 12.9001 10.95 12.9001 12.9 12.7501C13.4229 12.7219 13.9189 12.5093 14.3 12.1501C14.5933 11.7345 14.782 11.2542 14.85 10.7501C14.9421 10.0035 14.9922 9.25231 15 8.5001V7.4501C14.9922 6.69788 14.9421 5.9467 14.85 5.2001Z" fill="white"/>
</mask>
<g mask="url(#mask0_539_66)">
</g>
</svg>
